<svg width="100" height="53" viewBox="0 0 100 53" fill="none" xmlns="http://www.w3.org/2000/svg">
<path d="M37.5 7.66729L36.2191 8.88041C36.385 9.04975 36.584 9.18444 36.8041 9.27644C37.0242 9.36844 37.2609 9.41586 37.5 9.41586C37.7391 9.41586 37.9758 9.36844 38.1959 9.27644C38.416 9.18444 38.615 9.04975 38.7809 8.88041L37.5 7.66729ZM25.6419 33.1427C25.277 32.8476 24.8079 32.7071 24.3377 32.7521C23.8674 32.7972 23.4347 33.0241 23.1346 33.383C22.8345 33.7419 22.6917 34.2033 22.7375 34.6657C22.7833 35.1281 23.014 35.5537 23.3789 35.8489L25.6419 33.1427ZM14.5903 26.123C14.7025 26.3246 14.8539 26.5024 15.0359 26.6465C15.218 26.7905 15.4271 26.8979 15.6513 26.9624C15.8756 27.027 16.1105 27.0475 16.3428 27.0227C16.5751 26.998 16.8001 26.9285 17.0051 26.8182C17.2101 26.7079 17.391 26.559 17.5374 26.3799C17.6839 26.2009 17.793 25.9952 17.8587 25.7747C17.9243 25.5542 17.9451 25.3231 17.92 25.0946C17.8948 24.8662 17.8241 24.6449 17.712 24.4433L14.5903 26.123ZM15.5581 16.1521C15.5581 11.1363 18.4402 6.92776 22.3755 5.15708C26.1993 3.43772 31.3373 3.89264 36.2191 8.88041L38.7809 6.45651C32.993 0.537911 26.2658 -0.43958 20.8953 1.97499C15.6435 4.33823 12 9.82524 12 16.1521H15.5581ZM29.1906 40.3281C30.4074 41.2706 31.7121 42.2737 33.0333 43.0343C34.3546 43.7948 35.8633 44.4107 37.5 44.4107V40.9113C36.7647 40.9113 35.9012 40.6314 34.829 40.0131C33.7545 39.3972 32.642 38.5481 31.3942 37.5799L29.1906 40.3281ZM45.8094 40.3281C49.192 37.7035 53.5187 34.6988 56.9108 30.9404C60.367 27.1145 63 22.3716 63 16.1521H59.4419C59.4419 21.2798 57.307 25.2295 54.2517 28.6168C51.1324 32.0696 47.2019 34.7921 43.6058 37.5799L45.8094 40.3281ZM63 16.1521C63 9.82524 59.3588 4.33823 54.1046 1.97499C48.7342 -0.43958 42.0117 0.537911 36.2191 6.45418L38.7809 8.88041C43.6627 3.89497 48.8006 3.43772 52.6245 5.15708C56.5598 6.92776 59.4419 11.134 59.4419 16.1521H63ZM43.6058 37.5799C42.358 38.5481 41.2455 39.3972 40.171 40.0131C39.0964 40.629 38.2353 40.9113 37.5 40.9113V44.4107C39.1367 44.4107 40.6454 43.7924 41.9667 43.0343C43.2903 42.2737 44.5926 41.2706 45.8094 40.3281L43.6058 37.5799ZM31.3942 37.5799C29.506 36.1172 27.587 34.7174 25.6419 33.1427L23.3789 35.8489C25.3478 37.4423 27.4305 38.9633 29.1906 40.3281L31.3942 37.5799ZM17.712 24.4456C16.2829 21.9085 15.5412 19.0525 15.5581 16.1521H12C12 19.9734 12.9963 23.2558 14.5903 26.123L17.712 24.4456Z" fill="white"/>
<path d="M63.5 15.6059L62.2191 16.819C62.385 16.9884 62.584 17.123 62.8041 17.215C63.0242 17.307 63.2609 17.3545 63.5 17.3545C63.7391 17.3545 63.9758 17.307 64.1959 17.215C64.416 17.123 64.615 16.9884 64.7809 16.819L63.5 15.6059ZM51.6419 41.0813C51.277 40.7862 50.8079 40.6457 50.3377 40.6908C49.8674 40.7358 49.4347 40.9627 49.1346 41.3216C48.8345 41.6805 48.6917 42.1419 48.7375 42.6043C48.7833 43.0668 49.014 43.4924 49.3789 43.7875L51.6419 41.0813ZM40.5903 34.0616C40.7025 34.2632 40.8539 34.4411 41.0359 34.5851C41.218 34.7291 41.4271 34.8365 41.6513 34.901C41.8756 34.9656 42.1105 34.9861 42.3428 34.9613C42.5751 34.9366 42.8001 34.8671 43.0051 34.7568C43.2101 34.6465 43.391 34.4976 43.5374 34.3185C43.6839 34.1395 43.793 33.9338 43.8587 33.7133C43.9243 33.4928 43.9451 33.2617 43.92 33.0332C43.8948 32.8048 43.8241 32.5835 43.712 32.3819L40.5903 34.0616ZM41.5581 24.0907C41.5581 19.0749 44.4402 14.8664 48.3755 13.0957C52.1993 11.3763 57.3373 11.8312 62.2191 16.819L64.7809 14.3951C58.993 8.47652 52.2658 7.49903 46.8953 9.91359C41.6435 12.2768 38 17.7638 38 24.0907H41.5581ZM55.1906 48.2667C56.4074 49.2092 57.7121 50.2123 59.0333 50.9729C60.3546 51.7334 61.8633 52.3493 63.5 52.3493V48.8499C62.7647 48.8499 61.9012 48.57 60.829 47.9517C59.7545 47.3359 58.642 46.4867 57.3942 45.5185L55.1906 48.2667ZM71.8094 48.2667C75.192 45.6422 79.5187 42.6374 82.9108 38.879C86.367 35.0531 89 30.3103 89 24.0907H85.4419C85.4419 29.2184 83.307 33.1681 80.2517 36.5555C77.1324 40.0082 73.2019 42.7307 69.6058 45.5185L71.8094 48.2667ZM89 24.0907C89 17.7638 85.3588 12.2768 80.1046 9.91359C74.7342 7.49903 68.0117 8.47652 62.2191 14.3928L64.7809 16.819C69.6627 11.8336 74.8006 11.3763 78.6245 13.0957C82.5598 14.8664 85.4419 19.0726 85.4419 24.0907H89ZM69.6058 45.5185C68.358 46.4867 67.2455 47.3359 66.171 47.9517C65.0964 48.5676 64.2353 48.8499 63.5 48.8499V52.3493C65.1367 52.3493 66.6454 51.7311 67.9667 50.9729C69.2903 50.2123 70.5926 49.2092 71.8094 48.2667L69.6058 45.5185ZM57.3942 45.5185C55.506 44.0558 53.587 42.656 51.6419 41.0813L49.3789 43.7875C51.3478 45.3809 53.4305 46.9019 55.1906 48.2667L57.3942 45.5185ZM43.712 32.3842C42.2829 29.8471 41.5412 26.9911 41.5581 24.0907H38C38 27.912 38.9963 31.1944 40.5903 34.0616L43.712 32.3842Z" fill="white"/>
<rect y="18.4316" width="100" height="19.4444" fill="#274F44"/>
<path d="M17.3941 33H15.0101V29.032L10.6261 21.8H13.3301L16.1941 26.824L19.0581 21.8H21.7621L17.3941 29.032V33ZM20.3401 29.16C20.3401 26.472 22.3561 25.096 24.5801 25.096C26.8201 25.096 28.8201 26.472 28.8201 29.16C28.8201 31.848 26.8201 33.224 24.5801 33.224C22.3561 33.224 20.3401 31.848 20.3401 29.16ZM26.5641 29.16C26.5641 27.976 25.8601 27.08 24.5801 27.08C23.3161 27.08 22.6121 27.976 22.6121 29.16C22.6121 30.344 23.3161 31.24 24.5801 31.24C25.8601 31.24 26.5641 30.344 26.5641 29.16ZM35.6001 25.32H37.8241V33H35.8561V32.024C35.2641 32.712 34.3841 33.224 33.2961 33.224C31.2161 33.224 30.1761 31.848 30.1761 30.072V25.32H32.4001V29.784C32.4001 30.808 32.9601 31.304 33.8721 31.304C34.6721 31.304 35.2641 30.792 35.6001 30.328V25.32ZM41.6776 26.472C42.2216 25.624 43.3416 25.016 44.7816 25.16V27.32C43.5656 27.112 42.3976 27.576 41.9336 28.488V33H39.7096V25.32H41.6776V26.472ZM58.9253 21.8H61.5173L58.0613 33H55.4533L53.2292 25.368L51.0053 33H48.3973L44.9413 21.8H47.5333L49.7573 30.264L52.1733 21.8H54.2853L56.7013 30.264L58.9253 21.8ZM61.2776 29.16C61.2776 26.264 63.5016 25.096 65.2296 25.096C68.4136 25.096 69.4376 27.608 68.9256 29.88H63.5176C63.7736 31 64.9576 31.464 66.2216 31.464C67.1016 31.464 67.8856 31.288 68.5416 31V32.744C67.8216 33.048 66.8776 33.224 65.7256 33.224C63.2936 33.224 61.2776 31.832 61.2776 29.16ZM66.9256 28.44C67.0056 27.912 66.7016 26.792 65.3096 26.792C64.3656 26.792 63.5336 27.384 63.5016 28.44H66.9256ZM76.3156 21.8H78.5236V33H76.5716V31.88C76.0756 32.568 75.1956 33.224 73.7876 33.224C71.3396 33.224 70.0276 31.256 70.0276 29.16C70.0276 27.064 71.3396 25.096 73.7876 25.096C75.0036 25.096 75.8196 25.592 76.3156 26.136V21.8ZM76.3156 28.248C76.0116 27.576 75.2916 26.968 74.3156 26.968C73.0516 26.968 72.2996 27.96 72.2996 29.16C72.2996 30.36 73.0516 31.352 74.3156 31.352C75.2916 31.352 76.0116 30.744 76.3156 30.072V28.248ZM86.2688 21.8H88.4768V33H86.5248V31.88C86.0288 32.568 85.1488 33.224 83.7408 33.224C81.2928 33.224 79.9808 31.256 79.9808 29.16C79.9808 27.064 81.2928 25.096 83.7408 25.096C84.9568 25.096 85.7728 25.592 86.2688 26.136V21.8ZM86.2688 28.248C85.9648 27.576 85.2448 26.968 84.2688 26.968C83.0048 26.968 82.2528 27.96 82.2528 29.16C82.2528 30.36 83.0048 31.352 84.2688 31.352C85.2448 31.352 85.9648 30.744 86.2688 30.072V28.248Z" fill="white"/>
</svg>
